<?xml version="1.0" encoding="utf-8"?>
<!-- Generator: Adobe Illustrator 23.0.3, SVG Export Plug-In . SVG Version: 6.00 Build 0)  -->
<svg version="1.1" id="Layer_1" xmlns="http://www.w3.org/2000/svg" xmlns:xlink="http://www.w3.org/1999/xlink" x="0px" y="0px"
	 viewBox="0 0 256.2 426.67" style="enable-background:new 0 0 256.2 426.67;" xml:space="preserve">
<g id="atwzyX.tif">
	<g>
		<path d="M0,208.3c2.22-7.32,7.48-12.25,12.98-17.17c53.64-47.98,107.21-96.04,160.8-144.07c15.26-13.68,30.48-27.39,45.81-40.99
			c9.38-8.32,22.55-8.02,30.47,0.5c8.37,9,8.37,22.21-0.97,30.89c-17.32,16.11-35.11,31.71-52.72,47.5
			c-46.4,41.58-92.8,83.15-139.2,124.73c-1.21,1.09-2.38,2.21-3.9,3.63c4.67,4.23,8.94,8.13,13.26,12
			c59.68,53.47,119.33,106.97,179.1,160.34c7.19,6.42,11.98,13.58,10.04,23.51c-3.28,16.84-22.54,23.19-35.7,11.68
			c-15.42-13.49-30.57-27.29-45.83-40.96c-53.84-48.26-107.65-96.55-161.54-144.74C7.19,230.32,2.21,225.4,0,218.3
			C0,214.97,0,211.64,0,208.3z"/>
	</g>
</g>
</svg>
