<?xml version="1.0" encoding="utf-8"?>
<!-- Generator: Adobe Illustrator 23.0.3, SVG Export Plug-In . SVG Version: 6.00 Build 0)  -->
<svg version="1.1" id="Layer_1" xmlns="http://www.w3.org/2000/svg" xmlns:xlink="http://www.w3.org/1999/xlink" x="0px" y="0px"
	 viewBox="0 0 256.2 426.67" style="enable-background:new 0 0 256.2 426.67;" xml:space="preserve">
<g id="atwzyX.tif">
	<g>
		<path d="M256.2,218.37c-2.22,7.32-7.48,12.25-12.98,17.17c-53.64,47.98-107.21,96.04-160.8,144.07
			C67.17,393.28,51.95,407,36.63,420.6c-9.38,8.32-22.55,8.02-30.47-0.5c-8.37-9-8.37-22.21,0.97-30.89
			c17.32-16.11,35.11-31.71,52.72-47.5c46.4-41.58,92.8-83.15,139.2-124.73c1.21-1.09,2.38-2.21,3.9-3.63
			c-4.67-4.23-8.94-8.13-13.26-12C130.02,147.89,70.37,94.39,10.6,41.02C3.41,34.61-1.38,27.45,0.56,17.52
			C3.84,0.68,23.1-5.67,36.25,5.84C51.68,19.32,66.83,33.12,82.08,46.8c53.84,48.26,107.65,96.55,161.54,144.74
			c5.38,4.81,10.37,9.74,12.58,16.83C256.2,211.7,256.2,215.04,256.2,218.37z"/>
	</g>
</g>
</svg>
